<?xml version="1.0" standalone="no"?><!DOCTYPE svg PUBLIC "-//W3C//DTD SVG 1.1//EN" "http://www.w3.org/Graphics/SVG/1.1/DTD/svg11.dtd"><svg t="1724852269742" class="icon" viewBox="0 0 1024 1024" version="1.1" xmlns="http://www.w3.org/2000/svg" p-id="48971" xmlns:xlink="http://www.w3.org/1999/xlink" width="200" height="200"><path d="M510.536245 510.536245m-509.593914 0a509.593914 509.593914 0 1 0 1019.187829 0 509.593914 509.593914 0 1 0-1019.187829 0Z" p-id="48972"></path><path d="M849.040491 151.60854c24.965497 16.842601 54.334822 39.329767 113.378159 120.759754 130.603975 246.859387 37.737227 553.145325-207.686675 686.425522a187.272638 187.272638 0 0 0-39.62503-57.852859c-42.797546-33.879951-280.158233-82.620466-330.086086-99.064147-53.100368-16.641571 7.331337-25.559166-35.268319-53.891927-51.316221-34.07784 56.665521 32.494724 70.932417-7.331337 14.266896-39.82292-91.735951-92.923288-45.175362-72.515534 23.775018 10.302822 99.064147 23.18135 175.939534 42.398626 51.118331 12.878528 64.788417 4.359853 45.175362 0s-122.446528-72.713423-134.134577-190.602209c-7.331337-75.684908 16.842601-227.651534 29.520098-251.030773s22.191902-36.851436 48.740516-4.161963c26.548613 32.692613 44.974331 54.683485 49.532073 53.496147l31.897914-11.490159 9.313375-3.565153 127.993717-46.3627c6.140859-1.982037 37.646135-93.714847 44.776442-105.010257 7.133448-11.295411 17.43627-18.626748 44.776442-0.201031z" fill="#FFFFFF" p-id="48973"></path><path d="M753.974969 960.992589l-0.68476-1.567411a184.759755 184.759755 0 0 0-39.295215-57.369129c-29.721129-23.517448-154.501497-54.297129-245.609227-76.77173-38.560196-9.511264-69.019485-17.024785-83.861203-21.915485-13.927656-4.366135-21.18989-8.512393-23.520589-13.440785-1.90665-4.030037-0.31411-7.981546 1.228172-11.80427 2.971485-7.375313 6.34189-15.733791-13.349693-28.832196-15.228074-10.111215-15.096147-10.365644-14.25119-12.017865 0.863804-1.686773 1.978896-1.265865 10.66719 2.016589 15.670969 5.924123 48.281914 18.240393 65.067975 10.485006 4.341006-2.004025 7.230822-5.160834 8.839068-9.649473 8.84535-24.695362-31.656049-55.537865-48.950969-68.705374-7.950135-6.056049-8.970994-6.831902-7.987829-8.502969 0.942331-1.595681 1.865816-1.476319 13.874258 3.785031 13.902528 6.024638 45.505178 12.916221 85.516564 21.645349 27.516074 5.999509 58.704098 12.803141 90.174823 20.668467 33.710331 8.493546 48.897571 7.259092 51.567509 5.660269-0.672196-0.555975-2.641669-1.608245-7.114601-2.600834-9.706012-2.157939-40.454282-19.974282-70.860172-53.204024-25.958086-28.367313-58.220368-75.471313-64.499436-138.777129-7.378454-76.181202 16.735804-228.031607 29.705423-251.938552 7.205693-13.28373 13.45335-23.517448 22.713326-24.37497 7.811926-0.735018 16.965104 5.616294 28.621742 19.971141 17.153571 21.117644 43.017423 52.965301 47.854724 52.965301l0.087951-0.003141 31.737718-11.446184 9.285104-3.55573L758.95362 255.340368c3.360982-2.110822 16.29919-35.67038 25.747632-60.177276 8.141742-21.111362 15.168393-39.342331 18.23411-44.195337 2.940074-4.648834 7.249669-10.186601 14.584147-11.728884 8.185718-1.718184 18.793227 1.897227 32.400491 11.066111 25.687951 17.332613 55.632098 40.96 113.770798 121.139828 63.462871 119.92108 76.702626 257.360098 37.397987 387.181938-39.295215 129.781006-126.517399 236.873816-245.609227 301.546013l-1.504589 0.819828z m-410.231362-218.931828c2.519166 1.721325 5.20481 3.502331 6.875878 4.614282 21.824393 14.515043 17.77865 24.554012 14.527607 32.623509-1.463755 3.631117-2.61654 6.498945-1.300417 9.285104 1.875239 3.960933 8.955288 7.818209 21.642208 11.794847 14.750626 4.859288 46.679951 12.737178 83.650749 21.855804 91.387288 22.543706 216.550871 53.41762 246.941055 77.478478a187.925988 187.925988 0 0 1 39.39573 56.885399c117.596663-64.354945 203.71946-170.436319 242.606331-298.876074 39.062773-129.024 25.904687-265.618061-37.055607-384.615656-57.717791-79.576736-87.407509-103.018798-112.863018-120.194356-12.872245-8.672589-22.681914-12.14665-30.000687-10.598086-4.824736 1.014577-8.704 4.199656-12.573841 10.334233-2.90238 4.592294-10.214871 23.561423-17.957693 43.648786-17.254086 44.748172-24.023166 60.846331-27.666847 62.017963l-127.937178 46.340712-9.285104 3.55573-31.926184 11.502724c-5.333595 1.388368-17.979681-12.972761-51.28481-53.983019-10.789693-13.28373-19.232982-19.42773-25.898405-18.827779-7.711411 0.716172-13.487902 10.29654-20.241276 22.744736-12.837693 23.668221-36.675534 174.390969-29.337914 250.132417 11.728883 118.265718 115.595779 185.37227 132.912687 189.216982 8.754258 1.944344 9.451583 4.240491 9.680884 4.991215a2.600834 2.600834 0 0 1-0.659632 2.597693c-3.445791 3.605988-22.10081 3.737914-54.919068-4.532614-31.420466-7.852761-62.583362-14.65011-90.077448-20.646478-40.177865-8.763681-71.912442-15.683534-86.103951-21.830675a442.707239 442.707239 0 0 0-4.300171-1.862675l1.570552 1.199902c17.844613 13.585276 59.627583 45.401521 50.00638 72.267387-1.881521 5.248785-5.40584 9.096638-10.478724 11.443042-17.982822 8.311362-51.42616-4.32216-67.496049-10.400196a18.664442 18.664442 0 0 1-0.446037-0.163337z" p-id="48974"></path><path d="M646.056049 701.135313c-76.677497 8.518675-133.540908 3.763043-170.194454-14.266896a544.585816 544.585816 0 0 1-67.364123-36.059877A39.631313 39.631313 0 0 0 372.239706 622.27789 30.914748 30.914748 0 0 0 337.762945 644.865571a31.700025 31.700025 0 0 0-33.484172-1.586258 21.406626 21.406626 0 0 0-6.140859 28.138012A22.380368 22.380368 0 0 0 275.946012 694.397644a21.799264 21.799264 0 0 0 14.464786 24.965497A29.721129 29.721129 0 0 0 281.097423 755.620908c5.151411 14.662675 19.814086 21.397202 42.200737 19.814086A621.090552 621.090552 0 0 0 419.588712 827.146994c55.079264 23.775018 196.149399 38.437693 265.495558 59.439116 46.098847 13.208344 46.098847-27.211387 0-121.256049l-39.028221-64.194748z" fill="#FFFFFF" p-id="48975"></path><path d="M329.24427 708.070871a14.461644 14.461644 0 0 0-7.529227-18.623607 14.263755 14.263755 0 0 0-19.814086 4.755632 14.075288 14.075288 0 0 0 7.529227 18.623607 14.467926 14.467926 0 0 0 19.814086-4.755632zM345.490061 686.472638a15.250061 15.250061 0 0 0-17.23838-24.764466 15.250061 15.250061 0 0 0 17.23838 24.764466zM380.560491 671.615215a15.259485 15.259485 0 0 0-13.871117-26.746503c-6.027779 4.457227-7.921865 12.633521-4.469791 19.28638s11.226307 9.815951 18.340908 7.460123zM332.017865 736.601521a15.256344 15.256344 0 1 0-10.69546 16.842602 14.270037 14.270037 0 0 0 10.69546-16.842602z" p-id="48976"></path><path d="M358.492426 752.980606a28.094037 41.352638 32.737 1 0 44.725659-69.568514 28.094037 41.352638 32.737 1 0-44.725659 69.568514Z" p-id="48977"></path></svg>